<svg width="24" height="24" viewBox="0 0 24 24" fill="none" xmlns="http://www.w3.org/2000/svg">
<path d="M23.9979 12.0003C23.9979 18.061 19.5055 23.0716 13.6696 23.8846C13.1239 23.9603 12.5656 23.9998 11.999 23.9998C11.3448 23.9998 10.7024 23.9477 10.0769 23.8468C4.36371 22.9269 0 17.9728 0 12.0003C0 5.37291 5.37267 0 11.9998 0C18.6269 0 23.9996 5.37291 23.9996 12.0003H23.9979Z" fill="white"/>
<path d="M13.6697 9.6361V12.2502H16.9034L16.3914 15.7716H13.6697V23.8848C13.1241 23.9605 12.5658 24 11.9991 24C11.3449 24 10.7026 23.9479 10.077 23.847V15.7716H7.09473V12.2502H10.077V9.05172C10.077 7.06736 11.6855 5.45801 13.6706 5.45801V5.45969C13.6765 5.45969 13.6815 5.45801 13.6874 5.45801H16.9043V8.5035H14.8023C14.1776 8.5035 13.6706 9.01052 13.6706 9.63526L13.6697 9.6361Z" fill="#3E9C94"/>
</svg>
