<svg width="24" height="24" viewBox="0 0 24 24" fill="none" xmlns="http://www.w3.org/2000/svg">
<path d="M8.25 5.25C4.52051 5.25 1.5 8.27051 1.5 12C1.5 15.7295 4.52051 18.75 8.25 18.75C11.9795 18.75 15 15.7295 15 12C15 11.5371 14.9502 11.0859 14.8594 10.6494L14.8242 10.5H8.25V12.75H12.75C12.3926 14.877 10.4795 16.5 8.25 16.5C5.76562 16.5 3.75 14.4844 3.75 12C3.75 9.51562 5.76562 7.5 8.25 7.5C9.375 7.5 10.4004 7.91602 11.1914 8.59863L12.8027 7.01953C11.6016 5.9209 10.0049 5.25 8.25 5.25ZM18.75 8.25V10.5H16.5V12H18.75V14.25H20.25V12H22.5V10.5H20.25V8.25H18.75Z" fill="white"/>
</svg>
