<svg width="24" height="24" viewBox="0 0 24 24" fill="none" xmlns="http://www.w3.org/2000/svg">
<path d="M12.0273 0H11.9727C5.36034 0 0 5.36035 0 11.9727V12.0273C0 18.6397 5.36034 24 11.9727 24H12.0273C18.6396 24 24 18.6397 24 12.0273V11.9727C24 5.36035 18.6396 0 12.0273 0Z" fill="white"/>
<path d="M15.7134 4.88281H8.2871C6.23546 4.88281 4.56641 6.55187 4.56641 8.60351V15.3975C4.56641 17.4491 6.23546 19.1182 8.2871 19.1182H15.7134C17.765 19.1182 19.4341 17.4491 19.4341 15.3975V8.60351C19.4341 6.55187 17.765 4.88281 15.7134 4.88281ZM5.87895 8.60351C5.87895 7.27583 6.95942 6.19536 8.2871 6.19536H15.7134C17.041 6.19536 18.1215 7.27583 18.1215 8.60351V15.3975C18.1215 16.7252 17.041 17.8056 15.7134 17.8056H8.2871C6.95942 17.8056 5.87895 16.7252 5.87895 15.3975V8.60351Z" fill="#3E9C94"/>
<path d="M12.0004 15.4603C13.9083 15.4603 15.4613 13.9082 15.4613 11.9995C15.4613 10.0908 13.9091 8.53857 12.0004 8.53857C10.0917 8.53857 8.53955 10.0908 8.53955 11.9995C8.53955 13.9082 10.0917 15.4603 12.0004 15.4603ZM12.0004 9.85196C13.1852 9.85196 14.1488 10.8156 14.1488 12.0003C14.1488 13.185 13.1852 14.1486 12.0004 14.1486C10.8157 14.1486 9.8521 13.185 9.8521 12.0003C9.8521 10.8156 10.8157 9.85196 12.0004 9.85196Z" fill="#3E9C94"/>
<path d="M15.7816 9.09789C16.2954 9.09789 16.7141 8.67999 16.7141 8.1654C16.7141 7.65081 16.2962 7.23291 15.7816 7.23291C15.267 7.23291 14.8491 7.65081 14.8491 8.1654C14.8491 8.67999 15.267 9.09789 15.7816 9.09789Z" fill="#3E9C94"/>
</svg>
