<svg width="24" height="24" viewBox="0 0 24 24" fill="none" xmlns="http://www.w3.org/2000/svg">
<path d="M12.0273 0H11.9727C5.36035 0 0 5.36035 0 11.9727V12.0273C0 18.6397 5.36035 24 11.9727 24H12.0273C18.6396 24 24 18.6397 24 12.0273V11.9727C24 5.36035 18.6396 0 12.0273 0Z" fill="white"/>
<path d="M5.72338 7.97698C5.40723 7.68352 5.25 7.32029 5.25 6.8881C5.25 6.45591 5.40807 6.07669 5.72338 5.78239C6.03953 5.48894 6.4465 5.3418 6.94512 5.3418C7.44373 5.3418 7.83473 5.48894 8.15004 5.78239C8.46619 6.07585 8.62342 6.44498 8.62342 6.8881C8.62342 7.33122 8.46535 7.68352 8.15004 7.97698C7.83389 8.27043 7.4328 8.41757 6.94512 8.41757C6.45743 8.41757 6.03953 8.27043 5.72338 7.97698ZM8.35772 9.66033V18.6573H5.51485V9.66033H8.35772Z" fill="#3E9C94"/>
<path d="M17.8214 10.549C18.4411 11.2217 18.7505 12.145 18.7505 13.3204V18.4983H16.0506V13.6854C16.0506 13.0926 15.8967 12.6318 15.5898 12.3039C15.2829 11.9759 14.8692 11.8111 14.3513 11.8111C13.8333 11.8111 13.4196 11.9751 13.1127 12.3039C12.8058 12.6318 12.6519 13.0926 12.6519 13.6854V18.4983H9.93604V9.63505H12.6519V10.8105C12.9269 10.4187 13.2977 10.1093 13.7635 9.88142C14.2293 9.65356 14.7532 9.54004 15.3359 9.54004C16.3735 9.54004 17.2025 9.87637 17.8214 10.5482V10.549Z" fill="#3E9C94"/>
</svg>
