<svg width="20" height="15" viewBox="0 0 20 15" fill="none" xmlns="http://www.w3.org/2000/svg">
<path d="M9.75 0C6.92578 0 4.42969 0.292969 2.90625 0.515625C1.64648 0.700195 0.629883 1.64941 0.398438 2.90625C0.202148 3.97559 0 5.54004 0 7.5C0 9.45996 0.202148 11.0244 0.398438 12.0938C0.629883 13.3506 1.64648 14.3027 2.90625 14.4844C4.43555 14.707 6.94043 15 9.75 15C12.5596 15 15.0645 14.707 16.5938 14.4844C17.8535 14.3027 18.8701 13.3506 19.1016 12.0938C19.2979 11.0215 19.5 9.4541 19.5 7.5C19.5 5.5459 19.3008 3.97852 19.1016 2.90625C18.8701 1.64941 17.8535 0.700195 16.5938 0.515625C15.0703 0.292969 12.5742 0 9.75 0ZM9.75 1.5C12.4746 1.5 14.9092 1.77832 16.3828 1.99219C17.0156 2.08594 17.5107 2.56348 17.625 3.1875C17.8066 4.17773 18 5.64551 18 7.5C18 9.35156 17.8066 10.8223 17.625 11.8125C17.5107 12.4365 17.0186 12.917 16.3828 13.0078C14.9033 13.2217 12.457 13.5 9.75 13.5C7.04297 13.5 4.59375 13.2217 3.11719 13.0078C2.48438 12.917 1.98926 12.4365 1.875 11.8125C1.69336 10.8223 1.5 9.35742 1.5 7.5C1.5 5.63965 1.69336 4.17773 1.875 3.1875C1.98926 2.56348 2.48145 2.08594 3.11719 1.99219C4.58789 1.77832 7.02539 1.5 9.75 1.5ZM7.5 3.21094V11.7891L8.625 11.1562L13.875 8.15625L15 7.5L13.875 6.84375L8.625 3.84375L7.5 3.21094ZM9 5.78906L11.9766 7.5L9 9.21094V5.78906Z" fill="white"/>
</svg>
