<svg width="24" height="24" viewBox="0 0 24 24" fill="none" xmlns="http://www.w3.org/2000/svg">
<path d="M23.9999 12C23.9999 5.37258 18.6273 0 12 0C5.37257 0 0 5.37258 0 12C0 18.6274 5.37257 24 12 24C18.6273 24 23.9999 18.6274 23.9999 12Z" fill="white"/>
<path d="M19.5561 9.5134C19.4617 8.60187 19.2585 7.59422 18.5105 7.06467C17.9313 6.65402 17.1698 6.63883 16.459 6.63968C14.9563 6.63968 13.4529 6.64221 11.9502 6.64305C10.505 6.64474 9.05966 6.64558 7.61437 6.64727C7.01062 6.64727 6.42374 6.60089 5.86299 6.86229C5.38151 7.08659 5.00459 7.51327 4.77776 7.98801C4.46324 8.64825 4.39747 9.3962 4.35952 10.1264C4.28954 11.4562 4.29712 12.7894 4.3806 14.1183C4.44216 15.088 4.59815 16.1597 5.34778 16.7778C6.01224 17.3251 6.94991 17.3521 7.81169 17.3529C10.5471 17.3554 13.2834 17.358 16.0197 17.3597C16.3704 17.3605 16.7364 17.3538 17.0939 17.315C17.7972 17.2391 18.4675 17.0375 18.9195 16.5164C19.3757 15.9911 19.4929 15.26 19.562 14.5677C19.7307 12.888 19.729 11.1923 19.5561 9.5134ZM10.3684 14.3544V9.64495L14.4462 11.9992L10.3684 14.3544Z" fill="#3E9C94"/>
</svg>
