<svg width="24" height="24" viewBox="0 0 24 24" fill="none" xmlns="http://www.w3.org/2000/svg">
<path d="M4.5 3.75V11.25H1.5V21H14.25V18H22.5V8.25H17.25V3.75H4.5ZM6 5.25H15.75V8.25H9V11.25H6V5.25ZM10.5 9.75H21V16.5H14.25V11.25H10.5V9.75ZM17.25 11.25V12.75H19.5V11.25H17.25ZM3 12.75H4.5H9.75H12.75V13.585L8.2207 16.4004C8.01145 16.5309 7.7393 16.5316 7.5293 16.4004L3 13.5864V12.75ZM12.75 15.3516V19.5H3V15.353L6.73682 17.6748C7.08782 17.8931 7.482 18.0029 7.875 18.0029C8.268 18.0029 8.66147 17.8931 9.01172 17.6733L12.75 15.3516Z" fill="white"/>
</svg>
