<svg width="20" height="20" viewBox="0 0 20 20" fill="none" xmlns="http://www.w3.org/2000/svg">
<path d="M13.7966 10.7551L13.4174 11.1326C13.4174 11.1326 12.5149 12.0292 10.0524 9.5809C7.5899 7.13256 8.4924 6.2359 8.4924 6.2359L8.73073 5.99756C9.3199 5.41256 9.37573 4.47256 8.86157 3.7859L7.81157 2.3834C7.1749 1.5334 5.94573 1.4209 5.21657 2.1459L3.90823 3.4459C3.5474 3.8059 3.30573 4.2709 3.3349 4.78756C3.4099 6.11006 4.00823 8.95423 7.3449 12.2726C10.8841 15.7909 14.2049 15.9309 15.5624 15.8042C15.9924 15.7642 16.3657 15.5459 16.6666 15.2459L17.8499 14.0692C18.6499 13.2751 18.4249 11.9126 17.4016 11.3567L15.8099 10.4909C15.1382 10.1267 14.3216 10.2334 13.7966 10.7551Z" fill="white"/>
</svg>
