<svg width="24" height="24" viewBox="0 0 24 24" fill="none" xmlns="http://www.w3.org/2000/svg">
<path d="M3.75 3.75V20.25H20.25V3.75H3.75ZM5.25 5.25H18.75V18.75H5.25V5.25ZM8.90332 6.75146C8.53573 6.75146 8.16722 6.89066 7.88672 7.17041L7.17041 7.88672C6.77591 8.28272 6.64532 8.85447 6.83057 9.37646L6.86279 9.47461C6.98654 9.85186 7.27642 10.7345 8.22217 12.1348C8.68117 12.8158 9.21266 13.453 9.79541 14.0215L9.97119 14.1973C10.5457 14.7853 11.1813 15.3159 11.8623 15.7764C13.2641 16.7221 14.1481 17.0112 14.5254 17.1357L14.6235 17.1694C14.7803 17.2242 14.9428 17.2515 15.1025 17.2515C15.4745 17.2515 15.8365 17.1049 16.1133 16.8281L16.8296 16.1133C17.1011 15.841 17.25 15.4814 17.25 15.0981C17.25 14.7141 17.1011 14.3523 16.8296 14.0815L15.9668 13.2202C15.4245 12.678 14.4781 12.678 13.9351 13.2202L12.6548 14.5005C12.0765 14.1052 11.5341 13.6496 11.0391 13.1426L10.8516 12.9551C10.3491 12.4646 9.89548 11.9227 9.50098 11.3452L10.7812 10.0649C11.0528 9.79419 11.2017 9.43159 11.2017 9.04834C11.2017 8.66509 11.0528 8.30545 10.7812 8.0332L9.91699 7.17041C9.63762 6.89141 9.27091 6.75146 8.90332 6.75146Z" fill="white"/>
</svg>
