<svg width="58" height="57" viewBox="0 0 58 57" fill="none" xmlns="http://www.w3.org/2000/svg">
<g filter="url(#filter0_d_113_310)">
<path d="M13.7842 19.228C13.7842 18.424 14.4302 17.772 15.2282 17.772H22.9402C23.7402 17.772 24.3862 18.424 24.3862 19.228C24.387 19.4187 24.3502 19.6076 24.278 19.7841C24.2057 19.9606 24.0994 20.1211 23.9652 20.2565C23.8309 20.3918 23.6713 20.4995 23.4954 20.5732C23.3195 20.6469 23.1309 20.6852 22.9402 20.686H15.2282C14.8434 20.6839 14.4753 20.5291 14.2045 20.2557C13.9338 19.9824 13.7826 19.6127 13.7842 19.228Z" fill="white"/>
<path fill-rule="evenodd" clip-rule="evenodd" d="M46.376 20.0081C46.2507 20.0014 46.1173 19.9988 45.976 20.0001H40.43C35.888 20.0001 32 23.4721 32 28.0001C32 32.5281 35.888 36.0001 40.43 36.0001H45.976C46.1173 36.0014 46.2507 35.9988 46.376 35.9921C48.222 35.8801 49.854 34.4781 49.992 32.5181C50 32.3901 50 32.2521 50 32.1241V23.8761C50 23.7481 50 23.6101 49.992 23.4821C49.854 21.5221 48.222 20.1221 46.376 20.0081ZM39.942 30.1341C41.11 30.1341 42.058 29.1781 42.058 28.0001C42.058 26.8201 41.11 25.8661 39.942 25.8661C38.774 25.8661 37.822 26.8221 37.822 28.0001C37.822 29.1801 38.772 30.1341 39.942 30.1341Z" fill="white"/>
<path opacity="0.5" d="M46.28 20.004C46.28 17.642 46.192 15.108 44.684 13.294C44.5361 13.1167 44.3806 12.9459 44.218 12.782C42.72 11.286 40.822 10.622 38.478 10.306C36.198 10 33.288 10 29.612 10H25.388C21.712 10 18.8 10 16.52 10.306C14.176 10.622 12.278 11.286 10.78 12.782C9.284 14.28 8.62 16.178 8.304 18.522C8 20.802 8 23.712 8 27.388V27.612C8 31.288 8 34.2 8.306 36.478C8.622 38.822 9.286 40.72 10.782 42.218C12.28 43.714 14.178 44.378 16.522 44.694C18.802 45 21.712 45 25.388 45H29.612C33.288 45 36.2 45 38.478 44.694C40.822 44.378 42.72 43.714 44.218 42.218C44.6247 41.8073 44.9753 41.3673 45.27 40.898C46.17 39.458 46.278 37.694 46.278 35.998L45.978 36H40.43C35.888 36 32 32.528 32 28C32 23.472 35.888 20 40.43 20H45.976C46.0813 20 46.184 20.0013 46.28 20.004Z" fill="white"/>
<path d="M24.2022 5.14408L20.0002 7.98408L16.5342 10.3041C18.8102 10.0001 21.7182 10.0001 25.3882 10.0001H29.6122C33.2882 10.0001 36.2002 10.0001 38.4782 10.3061C38.9368 10.3661 39.3782 10.4421 39.8022 10.5341L36.0002 8.00008L31.7742 5.14408C30.6523 4.39848 29.3352 4.00073 27.9882 4.00073C26.6411 4.00073 25.3241 4.39848 24.2022 5.14408Z" fill="white"/>
</g>
<defs>
<filter id="filter0_d_113_310" x="-4" y="-4" width="64" height="64" filterUnits="userSpaceOnUse" color-interpolation-filters="sRGB">
<feFlood flood-opacity="0" result="BackgroundImageFix"/>
<feColorMatrix in="SourceAlpha" type="matrix" values="0 0 0 0 0 0 0 0 0 0 0 0 0 0 0 0 0 0 127 0" result="hardAlpha"/>
<feOffset dy="4"/>
<feGaussianBlur stdDeviation="4"/>
<feComposite in2="hardAlpha" operator="out"/>
<feColorMatrix type="matrix" values="0 0 0 0 0.898077 0 0 0 0 0.898077 0 0 0 0 0.898077 0 0 0 0.08 0"/>
<feBlend mode="normal" in2="BackgroundImageFix" result="effect1_dropShadow_113_310"/>
<feBlend mode="normal" in="SourceGraphic" in2="effect1_dropShadow_113_310" result="shape"/>
</filter>
</defs>
</svg>
